<?xml version="1.0" encoding="UTF-8"?>
<svg xmlns="http://www.w3.org/2000/svg" xmlns:xlink="http://www.w3.org/1999/xlink" width="549pt" height="413pt" viewBox="0 0 549 413" version="1.1">
<defs>
<filter id="alpha" filterUnits="objectBoundingBox" x="0%" y="0%" width="100%" height="100%">
  <feColorMatrix type="matrix" in="SourceGraphic" values="0 0 0 0 1 0 0 0 0 1 0 0 0 0 1 0 0 0 1 0"/>
</filter>
<mask id="mask0">
  <g filter="url(#alpha)">
<rect x="0" y="0" width="549" height="413" style="fill:rgb(0%,0%,0%);fill-opacity:0.501961;stroke:none;"/>
  </g>
</mask>
<linearGradient id="linear0" gradientUnits="userSpaceOnUse" x1="369.5" y1="153.5" x2="868" y2="652" gradientTransform="matrix(0.625285,0,0,0.625758,0,0)">
<stop offset="0" style="stop-color:rgb(100%,100%,100%);stop-opacity:1;"/>
<stop offset="1" style="stop-color:rgb(100%,100%,100%);stop-opacity:0;"/>
</linearGradient>
<clipPath id="clip1">
  <rect x="0" y="0" width="549" height="413"/>
</clipPath>
<g id="surface5" clip-path="url(#clip1)">
<path style=" stroke:none;fill-rule:evenodd;fill:url(#linear0);" d="M 542.792969 413 L 0.792969 413 C -6.070312 320.511719 85.046875 262.230469 134.546875 230.566406 C 140.980469 226.453125 146.707031 222.789062 151.429688 219.558594 C 172.117188 205.394531 187.460938 174.460938 203.777344 141.5625 C 233.835938 80.957031 267.207031 13.675781 343.421875 32.285156 C 410.429688 48.683594 511.136719 118.476562 549 222.882812 L 549 396.289062 C 547.121094 401.816406 545.054688 407.386719 542.792969 413 Z M 542.792969 413 "/>
</g>
<mask id="mask1">
  <g filter="url(#alpha)">
<rect x="0" y="0" width="549" height="413" style="fill:rgb(0%,0%,0%);fill-opacity:0.2;stroke:none;"/>
  </g>
</mask>
<clipPath id="clip2">
  <rect x="0" y="0" width="549" height="413"/>
</clipPath>
<g id="surface8" clip-path="url(#clip2)">
<path style=" stroke:none;fill-rule:nonzero;fill:rgb(20.784314%,17.254902%,21.960784%);fill-opacity:1;" d="M 420.226562 150.792969 C 425.574219 150.71875 431.425781 149.996094 436.554688 147.90625 C 435.542969 146.679688 434.890625 146.027344 434.890625 146.027344 C 434.890625 146.027344 415.75 124.746094 404.550781 138.09375 C 402.820312 140.183594 400.941406 142.925781 399.0625 146.246094 C 405.347656 149.707031 413.292969 150.933594 420.226562 150.792969 Z M 420.226562 150.792969 "/>
</g>
<mask id="mask2">
  <g filter="url(#alpha)">
<rect x="0" y="0" width="549" height="413" style="fill:rgb(0%,0%,0%);fill-opacity:0.2;stroke:none;"/>
  </g>
</mask>
<clipPath id="clip3">
  <rect x="0" y="0" width="549" height="413"/>
</clipPath>
<g id="surface11" clip-path="url(#clip3)">
<path style=" stroke:none;fill-rule:nonzero;fill:rgb(20.784314%,17.254902%,21.960784%);fill-opacity:1;" d="M 391.550781 161.109375 C 383.601562 179.21875 376.882812 201.726562 378.546875 213.417969 C 379.992188 223.949219 390.105469 235.207031 398.265625 242.78125 C 401.15625 223.15625 406.429688 195.882812 409.609375 180.15625 C 401.734375 175.683594 395.234375 169.261719 391.550781 161.109375 Z M 391.550781 161.109375 "/>
</g>
<mask id="mask3">
  <g filter="url(#alpha)">
<rect x="0" y="0" width="549" height="413" style="fill:rgb(0%,0%,0%);fill-opacity:0.101961;stroke:none;"/>
  </g>
</mask>
<clipPath id="clip4">
  <rect x="0" y="0" width="549" height="413"/>
</clipPath>
<g id="surface14" clip-path="url(#clip4)">
<path style=" stroke:none;fill-rule:nonzero;fill:rgb(8.627451%,9.411765%,14.901961%);fill-opacity:1;" d="M 388.082031 113.058594 C 384.109375 109.953125 379.558594 106.058594 376.597656 101.367188 C 374.429688 106.417969 373.417969 111.6875 373.417969 111.6875 L 388.949219 119.261719 L 389.886719 114.355469 C 389.308594 113.996094 388.660156 113.5625 388.082031 113.058594 Z M 388.082031 113.058594 "/>
</g>
<mask id="mask4">
  <g filter="url(#alpha)">
<rect x="0" y="0" width="549" height="413" style="fill:rgb(0%,0%,0%);fill-opacity:0.101961;stroke:none;"/>
  </g>
</mask>
<clipPath id="clip5">
  <rect x="0" y="0" width="549" height="413"/>
</clipPath>
<g id="surface17" clip-path="url(#clip5)">
<path style=" stroke:none;fill-rule:nonzero;fill:rgb(8.627451%,9.411765%,14.901961%);fill-opacity:1;" d="M 417.699219 137.585938 C 409.03125 137.082031 398.410156 136.074219 391.1875 130.734375 C 389.816406 129.722656 388.585938 128.640625 387.429688 127.414062 C 390.683594 135.421875 394.726562 142.207031 398.773438 144.226562 C 409.609375 149.636719 434.890625 146.027344 434.890625 146.027344 C 436.335938 143.648438 437.421875 140.257812 437.925781 135.785156 C 431.425781 137.730469 424.632812 138.019531 417.699219 137.585938 Z M 417.699219 137.585938 "/>
</g>
<mask id="mask5">
  <g filter="url(#alpha)">
<rect x="0" y="0" width="549" height="413" style="fill:rgb(0%,0%,0%);fill-opacity:0.101961;stroke:none;"/>
  </g>
</mask>
<clipPath id="clip6">
  <rect x="0" y="0" width="549" height="413"/>
</clipPath>
<g id="surface20" clip-path="url(#clip6)">
<path style=" stroke:none;fill-rule:nonzero;fill:rgb(8.627451%,9.411765%,14.901961%);fill-opacity:1;" d="M 379.992188 205.117188 L 380.207031 195.089844 C 380.136719 189.175781 375.296875 184.414062 369.371094 184.484375 L 317.71875 185.132812 C 311.796875 185.207031 307.027344 190.039062 307.101562 195.957031 L 307.605469 205.984375 Z M 379.992188 205.117188 "/>
</g>
<mask id="mask6">
  <g filter="url(#alpha)">
<rect x="0" y="0" width="549" height="413" style="fill:rgb(0%,0%,0%);fill-opacity:0.101961;stroke:none;"/>
  </g>
</mask>
<clipPath id="clip7">
  <rect x="0" y="0" width="549" height="413"/>
</clipPath>
<g id="surface23" clip-path="url(#clip7)">
<path style=" stroke:none;fill-rule:nonzero;fill:rgb(8.627451%,9.411765%,14.901961%);fill-opacity:1;" d="M 222.21875 157.066406 C 221.136719 146.246094 220.269531 139.753906 220.269531 139.753906 C 220.269531 139.753906 176.925781 112.117188 172.953125 140.113281 C 172.589844 142.710938 172.375 146.964844 172.160156 152.378906 C 175.410156 154.183594 216.007812 159.953125 222.21875 157.066406 Z M 222.21875 157.066406 "/>
</g>
<mask id="mask7">
  <g filter="url(#alpha)">
<rect x="0" y="0" width="549" height="413" style="fill:rgb(0%,0%,0%);fill-opacity:0.101961;stroke:none;"/>
  </g>
</mask>
<clipPath id="clip8">
  <rect x="0" y="0" width="549" height="413"/>
</clipPath>
<g id="surface26" clip-path="url(#clip8)">
<path style=" stroke:none;fill-rule:nonzero;fill:rgb(8.627451%,9.411765%,14.901961%);fill-opacity:1;" d="M 199.972656 179.578125 C 200.476562 185.277344 203.078125 203.675781 206.328125 221.785156 C 210.519531 245.089844 210.15625 276.332031 212.972656 292.417969 C 216.226562 294.945312 228.648438 291.480469 228.648438 291.480469 C 229.878906 249.707031 226.484375 201.871094 223.59375 171.28125 C 216.730469 175.609375 207.988281 177.703125 199.972656 179.578125 Z M 199.972656 179.578125 "/>
</g>
<mask id="mask8">
  <g filter="url(#alpha)">
<rect x="0" y="0" width="549" height="413" style="fill:rgb(0%,0%,0%);fill-opacity:0.2;stroke:none;"/>
  </g>
</mask>
<clipPath id="clip9">
  <rect x="0" y="0" width="549" height="413"/>
</clipPath>
<g id="surface29" clip-path="url(#clip9)">
<path style=" stroke:none;fill-rule:nonzero;fill:rgb(20.784314%,17.254902%,21.960784%);fill-opacity:1;" d="M 167.101562 105.914062 C 167.246094 126.839844 168.476562 150.140625 168.476562 150.140625 C 168.476562 150.140625 200.835938 155.695312 227.421875 150.648438 C 227.421875 150.648438 226.914062 104.253906 225.832031 84.34375 C 206.253906 91.628906 186.679688 98.84375 167.101562 105.914062 Z M 167.101562 105.914062 "/>
</g>
</defs>
<g id="surface1">
<use xlink:href="#surface5" mask="url(#mask0)"/>
<path style=" stroke:none;fill-rule:nonzero;fill:rgb(94.117647%,94.117647%,96.078431%);fill-opacity:1;" d="M 298.261719 290.976562 C 219.523438 290.976562 155.695312 297.421875 155.695312 305.371094 C 155.695312 313.320312 219.523438 319.761719 298.261719 319.761719 C 376.996094 319.761719 440.824219 313.320312 440.824219 305.371094 C 440.824219 297.421875 376.996094 290.976562 298.261719 290.976562 Z M 298.261719 290.976562 "/>
<path style=" stroke:none;fill-rule:nonzero;fill:rgb(58.823529%,32.941176%,31.372549%);fill-opacity:1;" d="M 427.308594 249.5625 C 427.308594 249.5625 407.082031 307.28125 404.914062 307.28125 C 402.746094 307.28125 359.402344 320.992188 397.6875 303.675781 C 397.6875 303.675781 402.023438 240.90625 408.527344 238.019531 C 415.027344 235.132812 427.308594 249.5625 427.308594 249.5625 Z M 427.308594 249.5625 "/>
<path style=" stroke:none;fill-rule:nonzero;fill:rgb(46.27451%,25.490196%,23.137255%);fill-opacity:1;" d="M 412.136719 291.121094 C 418.710938 274.019531 427.308594 249.5625 427.308594 249.5625 C 427.308594 249.5625 415.027344 235.132812 408.527344 238.019531 C 404.335938 239.894531 401.011719 266.878906 399.207031 285.636719 C 403.539062 287.371094 407.800781 289.246094 412.136719 291.121094 Z M 412.136719 291.121094 "/>
<path style=" stroke:none;fill-rule:nonzero;fill:rgb(1.960784%,12.156863%,21.960784%);fill-opacity:1;" d="M 391.40625 306.777344 C 391.40625 306.777344 389.742188 310.601562 405.636719 306.558594 L 404.914062 308.726562 C 404.914062 308.726562 360.125 319.257812 391.40625 306.777344 Z M 391.40625 306.777344 "/>
<path style=" stroke:none;fill-rule:nonzero;fill:rgb(58.823529%,32.941176%,31.372549%);fill-opacity:1;" d="M 415.027344 225.105469 C 415.027344 225.105469 446.304688 277.703125 444.933594 279.359375 C 443.5625 281.019531 426.222656 323.011719 437.492188 282.535156 C 437.492188 282.535156 392.125 238.886719 394.078125 232.03125 C 396.101562 225.25 415.027344 225.105469 415.027344 225.105469 Z M 415.027344 225.105469 "/>
<path style=" stroke:none;fill-rule:nonzero;fill:rgb(1.960784%,12.156863%,21.960784%);fill-opacity:1;" d="M 435.902344 289.316406 C 435.902344 289.316406 437.78125 293.070312 444.859375 278.277344 L 446.089844 280.226562 C 446.015625 280.226562 425.355469 321.351562 435.902344 289.316406 Z M 435.902344 289.316406 "/>
<path style=" stroke:none;fill-rule:nonzero;fill:rgb(46.27451%,25.490196%,23.137255%);fill-opacity:1;" d="M 433.230469 256.417969 C 424.851562 241.625 415.027344 225.105469 415.027344 225.105469 C 415.027344 225.105469 396.101562 225.25 394.078125 232.03125 C 392.777344 236.433594 411.414062 256.34375 424.632812 269.765625 C 424.707031 269.835938 429.835938 264.136719 433.230469 256.417969 Z M 433.230469 256.417969 "/>
<path style=" stroke:none;fill-rule:nonzero;fill:rgb(40%,20%,80%);fill-opacity:1;" d="M 434.890625 146.027344 C 434.890625 146.027344 415.75 124.746094 404.550781 138.09375 C 393.355469 151.441406 376.015625 195.449219 378.542969 213.488281 C 380.0625 224.09375 390.246094 235.421875 398.410156 242.996094 L 391.546875 281.667969 C 391.546875 281.667969 419.722656 289.246094 417.914062 289.246094 C 416.832031 289.246094 445.726562 211.683594 448.617188 187.152344 C 451.507812 162.625 434.890625 146.027344 434.890625 146.027344 Z M 434.890625 146.027344 "/>
<use xlink:href="#surface8" mask="url(#mask1)"/>
<use xlink:href="#surface11" mask="url(#mask2)"/>
<path style=" stroke:none;fill-rule:nonzero;fill:rgb(58.823529%,32.941176%,31.372549%);fill-opacity:1;" d="M 379.628906 103.460938 L 368.070312 125.828125 C 368.070312 125.828125 347.84375 114.644531 344.953125 114.644531 C 342.066406 114.644531 328.339844 115.003906 334.839844 117.890625 C 334.839844 117.890625 331.953125 119.695312 335.203125 120.414062 C 335.203125 120.414062 332.3125 122.941406 335.925781 123.300781 L 344.230469 122.941406 C 344.230469 122.941406 360.847656 138.09375 369.15625 140.257812 C 377.460938 142.421875 390.828125 114.285156 390.828125 114.285156 Z M 379.628906 103.460938 "/>
<path style=" stroke:none;fill-rule:nonzero;fill:rgb(46.27451%,25.490196%,23.137255%);fill-opacity:1;" d="M 381.507812 119.476562 C 383.3125 120.128906 385.191406 120.777344 387.070312 121.425781 C 389.382812 117.386719 390.828125 114.210938 390.828125 114.210938 L 379.628906 103.390625 L 373.273438 115.65625 C 375.800781 117.242188 378.617188 118.46875 381.507812 119.476562 Z M 381.507812 119.476562 "/>
<path style=" stroke:none;fill-rule:nonzero;fill:rgb(20.392157%,79.607843%,47.45098%);fill-opacity:1;" d="M 394.078125 92.640625 C 394.078125 92.640625 383.242188 90.835938 379.269531 96.609375 C 375.292969 102.378906 373.488281 111.757812 373.488281 111.757812 L 389.019531 119.335938 Z M 394.078125 92.640625 "/>
<use xlink:href="#surface14" mask="url(#mask3)"/>
<path style=" stroke:none;fill-rule:nonzero;fill:rgb(13.72549%,9.019608%,23.137255%);fill-opacity:1;" d="M 318.082031 111.976562 C 318.515625 113.128906 317.867188 114.429688 316.710938 114.859375 L 308.183594 117.964844 C 307.027344 118.394531 305.730469 117.746094 305.296875 116.59375 L 301.902344 107.140625 C 301.464844 105.988281 302.117188 104.6875 303.273438 104.253906 L 311.796875 101.152344 C 312.953125 100.71875 314.253906 101.367188 314.6875 102.523438 Z M 318.082031 111.976562 "/>
<path style=" stroke:none;fill-rule:nonzero;fill:rgb(19.607843%,12.941176%,32.54902%);fill-opacity:1;" d="M 324.945312 104.90625 L 298.214844 114.5 C 293.519531 116.160156 291.136719 121.355469 292.796875 126.042969 L 301.035156 148.914062 C 302.695312 153.605469 307.894531 155.984375 312.589844 154.328125 L 339.320312 144.730469 C 344.015625 143.070312 346.398438 137.875 344.738281 133.1875 L 336.503906 110.316406 C 334.769531 105.625 329.640625 103.171875 324.945312 104.90625 Z M 342.136719 135.28125 C 342.789062 137.15625 341.847656 139.246094 339.96875 139.898438 L 328.484375 108.152344 C 330.363281 107.503906 332.457031 108.441406 333.105469 110.316406 Z M 342.136719 135.28125 "/>
<path style=" stroke:none;fill-rule:nonzero;fill:rgb(40%,20%,80%);fill-opacity:1;" d="M 316.347656 102.378906 C 316.710938 103.390625 316.203125 104.542969 315.191406 104.90625 L 303.054688 109.304688 C 302.042969 109.667969 300.890625 109.160156 300.527344 108.152344 L 299.515625 105.335938 C 299.15625 104.328125 299.660156 103.171875 300.671875 102.8125 L 312.808594 98.410156 C 313.820312 98.050781 314.976562 98.554688 315.335938 99.566406 Z M 316.347656 102.378906 "/>
<path style=" stroke:none;fill-rule:nonzero;fill:rgb(58.823529%,32.941176%,31.372549%);fill-opacity:1;" d="M 333.394531 116.085938 C 333.394531 116.085938 337.949219 114.5 338.742188 115.4375 C 339.464844 116.304688 334.914062 117.601562 335.128906 117.675781 C 335.273438 117.746094 340.042969 116.664062 340.476562 117.675781 C 340.910156 118.683594 335.417969 120.488281 335.417969 120.488281 C 335.417969 120.488281 340.621094 119.046875 340.980469 120.128906 C 341.34375 121.210938 335.5625 122.796875 335.5625 122.796875 L 335.273438 120.417969 L 334.914062 117.675781 Z M 333.394531 116.085938 "/>
<path style=" stroke:none;fill-rule:nonzero;fill:rgb(58.823529%,32.941176%,31.372549%);fill-opacity:1;" d="M 339.824219 114.859375 C 339.824219 114.859375 336.285156 112.480469 336.285156 111.6875 C 336.214844 110.820312 345.675781 114.789062 345.675781 114.789062 Z M 339.824219 114.859375 "/>
<path style=" stroke:none;fill-rule:nonzero;fill:rgb(46.27451%,25.490196%,23.137255%);fill-opacity:1;" d="M 409.609375 90.835938 C 408.886719 92.132812 412.425781 61.902344 412.425781 61.902344 L 396.027344 72.941406 C 396.027344 72.941406 397.472656 92.277344 395.667969 92.351562 C 394.945312 92.351562 392.125 93.433594 389.019531 94.585938 C 389.742188 98.195312 391.1875 98.988281 392.414062 102.453125 C 401.589844 102.378906 411.558594 102.164062 417.195312 93.792969 C 413.941406 92.710938 410.546875 89.03125 409.609375 90.835938 Z M 409.609375 90.835938 "/>
<path style=" stroke:none;fill-rule:nonzero;fill:rgb(20.392157%,79.607843%,47.45098%);fill-opacity:1;" d="M 394.078125 92.640625 L 393.355469 90.113281 L 411.414062 86.144531 L 412.136719 90.472656 C 412.136719 90.472656 433.808594 97.691406 436.699219 113.921875 C 439.585938 130.15625 438.144531 140.617188 434.890625 146.027344 C 434.890625 146.027344 409.609375 149.636719 398.773438 144.226562 C 387.9375 138.8125 376.738281 98.410156 382.519531 94.804688 C 388.296875 91.195312 394.078125 92.640625 394.078125 92.640625 Z M 394.078125 92.640625 "/>
<use xlink:href="#surface17" mask="url(#mask4)"/>
<path style=" stroke:none;fill-rule:nonzero;fill:rgb(58.823529%,32.941176%,31.372549%);fill-opacity:1;" d="M 416.832031 125.105469 L 435.253906 123.664062 C 435.253906 123.664062 430.558594 156.128906 425.140625 167.3125 C 419.722656 178.496094 394.800781 222.507812 404.550781 197.976562 C 404.550781 197.976562 391.910156 217.097656 402.746094 197.617188 C 402.746094 197.617188 390.828125 213.128906 401.300781 196.535156 C 401.300781 196.535156 389.019531 210.601562 402.023438 190.761719 C 402.023438 190.761719 392.269531 195.449219 403.105469 187.515625 L 413.582031 160.097656 Z M 416.832031 125.105469 "/>
<path style=" stroke:none;fill-rule:nonzero;fill:rgb(46.27451%,25.490196%,23.137255%);fill-opacity:1;" d="M 434.820312 126.261719 C 435.109375 124.601562 435.253906 123.589844 435.253906 123.589844 L 416.832031 125.035156 L 416.6875 126.910156 C 422.683594 126.910156 428.753906 126.621094 434.820312 126.261719 Z M 434.820312 126.261719 "/>
<path style=" stroke:none;fill-rule:nonzero;fill:rgb(1.960784%,12.156863%,21.960784%);fill-opacity:1;" d="M 397.542969 42.496094 C 397.542969 42.496094 406.71875 37.15625 420.15625 45.957031 C 429.039062 51.804688 428.609375 70.488281 409.390625 82.753906 C 386.566406 97.328125 397.542969 42.496094 397.542969 42.496094 Z M 397.542969 42.496094 "/>
<path style=" stroke:none;fill-rule:nonzero;fill:rgb(58.823529%,32.941176%,31.372549%);fill-opacity:1;" d="M 410.257812 52.453125 C 410.257812 52.453125 399.929688 44.445312 391.117188 48.339844 C 379.992188 53.390625 381.148438 65.148438 380.929688 75.179688 C 380.640625 88.527344 391.1875 91.050781 394.367188 91.195312 C 399.0625 91.484375 418.207031 90.332031 410.257812 52.453125 Z M 410.257812 52.453125 "/>
<path style=" stroke:none;fill-rule:nonzero;fill:rgb(58.823529%,32.941176%,31.372549%);fill-opacity:1;" d="M 411.269531 64.933594 C 411.269531 64.933594 411.703125 62.914062 415.171875 64.5 C 419.578125 66.59375 417.195312 77.128906 412.28125 76.839844 C 407.296875 76.621094 411.269531 64.933594 411.269531 64.933594 Z M 411.269531 64.933594 "/>
<path style=" stroke:none;fill-rule:nonzero;fill:rgb(1.960784%,12.156863%,21.960784%);fill-opacity:1;" d="M 411.269531 64.933594 C 411.269531 64.933594 411.847656 72.148438 410.1875 72.222656 C 408.453125 72.292969 406.644531 59.160156 411.414062 59.160156 C 416.183594 59.304688 411.269531 64.933594 411.269531 64.933594 Z M 411.269531 64.933594 "/>
<path style=" stroke:none;fill-rule:nonzero;fill:rgb(20.392157%,79.607843%,47.45098%);fill-opacity:1;" d="M 411.269531 64.933594 C 411.269531 64.933594 407.730469 48.917969 386.710938 51.585938 C 386.710938 51.585938 389.742188 45.597656 396.390625 42.785156 C 405.417969 38.960938 418.925781 54.328125 415.171875 64.5 C 415.171875 64.5 413.4375 64.71875 411.269531 64.933594 Z M 411.269531 64.933594 "/>
<path style=" stroke:none;fill-rule:nonzero;fill:rgb(1.960784%,12.156863%,21.960784%);fill-opacity:1;" d="M 420.15625 50.144531 C 420.15625 50.144531 419 31.023438 423.621094 31.023438 C 428.246094 31.023438 423.261719 47.113281 423.261719 47.113281 C 423.261719 47.113281 427.089844 24.097656 438.214844 27.5625 C 449.339844 31.023438 430.125 47.113281 430.125 47.113281 C 430.125 47.113281 438.9375 39.03125 442.042969 41.773438 C 445.078125 44.445312 429.402344 49.855469 429.402344 49.855469 C 429.402344 49.855469 441.320312 46.390625 442.839844 52.164062 C 444.355469 57.863281 419.792969 57.070312 420.15625 50.144531 Z M 420.15625 50.144531 "/>
<path style=" stroke:none;fill-rule:nonzero;fill:rgb(1.960784%,12.156863%,21.960784%);fill-opacity:1;" d="M 381.507812 61.253906 C 381.507812 61.253906 381.507812 61.109375 381.652344 60.820312 C 381.796875 60.535156 381.941406 60.171875 382.300781 59.8125 C 382.664062 59.449219 383.097656 59.019531 383.675781 58.730469 C 383.820312 58.65625 383.964844 58.585938 384.179688 58.511719 C 384.324219 58.441406 384.542969 58.367188 384.6875 58.367188 C 384.902344 58.367188 385.046875 58.296875 385.265625 58.296875 L 385.84375 58.296875 C 386.203125 58.296875 386.5625 58.441406 386.925781 58.585938 C 387.285156 58.730469 387.574219 58.875 387.863281 59.089844 C 388.152344 59.308594 388.371094 59.523438 388.585938 59.738281 C 388.804688 59.957031 388.949219 60.171875 389.019531 60.390625 C 389.09375 60.460938 389.164062 60.605469 389.164062 60.675781 C 389.238281 60.75 389.238281 60.894531 389.308594 60.964844 C 389.382812 61.183594 389.453125 61.328125 389.453125 61.472656 C 389.527344 61.757812 389.527344 61.902344 389.527344 61.902344 C 389.527344 61.902344 389.382812 61.832031 389.09375 61.761719 C 388.949219 61.6875 388.804688 61.617188 388.660156 61.542969 C 388.515625 61.472656 388.296875 61.398438 388.082031 61.253906 C 387.863281 61.183594 387.71875 61.039062 387.503906 60.964844 C 387.285156 60.894531 387.070312 60.820312 386.851562 60.75 C 386.636719 60.675781 386.417969 60.605469 386.203125 60.535156 C 385.988281 60.535156 385.769531 60.460938 385.554688 60.460938 L 385.265625 60.460938 C 385.191406 60.460938 385.046875 60.460938 384.902344 60.460938 C 384.6875 60.460938 384.46875 60.535156 384.253906 60.535156 C 384.035156 60.605469 383.820312 60.605469 383.601562 60.675781 C 383.386719 60.75 383.167969 60.75 382.953125 60.820312 C 382.519531 60.964844 382.15625 61.039062 381.941406 61.109375 C 381.722656 61.253906 381.507812 61.253906 381.507812 61.253906 Z M 381.507812 61.253906 "/>
<path style=" stroke:none;fill-rule:nonzero;fill:rgb(100%,100%,100%);fill-opacity:1;" d="M 387.070312 81.09375 C 387.070312 81.09375 398.917969 81.457031 399.710938 81.3125 C 400.433594 81.167969 393.066406 86.941406 387.070312 81.09375 Z M 387.070312 81.09375 "/>
<path style=" stroke:none;fill-rule:nonzero;fill:rgb(12.156863%,15.294118%,20%);fill-opacity:1;" d="M 387.863281 67.890625 C 387.863281 67.890625 387.863281 68.035156 387.792969 68.324219 C 387.71875 68.613281 387.648438 68.972656 387.503906 69.480469 C 387.429688 69.695312 387.359375 69.984375 387.214844 70.199219 C 387.140625 70.34375 387.070312 70.488281 386.996094 70.5625 C 386.925781 70.707031 386.78125 70.851562 386.707031 70.921875 C 386.492188 71.136719 386.273438 71.425781 385.914062 71.570312 C 385.84375 71.644531 385.769531 71.644531 385.625 71.714844 L 385.410156 71.789062 C 385.265625 71.859375 385.046875 71.859375 384.832031 71.859375 C 384.46875 71.859375 384.035156 71.789062 383.746094 71.5 C 383.457031 71.28125 383.242188 70.996094 383.097656 70.632812 C 382.953125 70.34375 382.878906 70.058594 382.808594 69.769531 C 382.734375 69.480469 382.734375 69.191406 382.734375 68.972656 C 382.734375 68.46875 382.734375 68.109375 382.808594 67.820312 C 382.878906 67.53125 382.953125 67.386719 382.953125 67.386719 C 382.953125 67.386719 382.953125 68.035156 383.167969 68.972656 C 383.242188 69.40625 383.386719 69.984375 383.675781 70.417969 C 383.820312 70.632812 383.964844 70.851562 384.179688 70.996094 C 384.398438 71.136719 384.613281 71.210938 384.832031 71.210938 C 384.976562 71.210938 385.046875 71.210938 385.191406 71.136719 L 385.410156 71.066406 C 385.410156 71.066406 385.480469 70.996094 385.554688 70.996094 C 385.769531 70.921875 385.988281 70.707031 386.203125 70.5625 C 386.417969 70.34375 386.5625 70.128906 386.707031 69.914062 C 386.851562 69.695312 386.996094 69.480469 387.070312 69.261719 C 387.285156 68.832031 387.429688 68.46875 387.574219 68.253906 C 387.792969 68.035156 387.863281 67.890625 387.863281 67.890625 Z M 387.863281 67.890625 "/>
<path style=" stroke:none;fill-rule:nonzero;fill:rgb(12.156863%,15.294118%,20%);fill-opacity:1;" d="M 399.785156 68.832031 C 399.785156 68.832031 399.785156 68.972656 399.710938 69.261719 C 399.640625 69.550781 399.566406 69.914062 399.421875 70.417969 C 399.351562 70.632812 399.277344 70.921875 399.132812 71.136719 C 399.0625 71.28125 398.988281 71.425781 398.917969 71.5 C 398.84375 71.644531 398.699219 71.789062 398.628906 71.859375 C 398.410156 72.078125 398.195312 72.363281 397.832031 72.507812 C 397.761719 72.582031 397.6875 72.582031 397.542969 72.652344 L 397.328125 72.726562 C 397.183594 72.796875 396.96875 72.796875 396.75 72.796875 C 396.386719 72.796875 395.957031 72.726562 395.667969 72.4375 C 395.378906 72.222656 395.160156 71.933594 395.015625 71.570312 C 394.871094 71.28125 394.800781 70.996094 394.726562 70.707031 C 394.65625 70.417969 394.65625 70.128906 394.65625 69.914062 C 394.65625 69.40625 394.65625 69.046875 394.726562 68.757812 C 394.800781 68.46875 394.871094 68.324219 394.871094 68.324219 C 394.871094 68.324219 394.871094 68.972656 395.089844 69.914062 C 395.160156 70.34375 395.304688 70.921875 395.59375 71.355469 C 395.738281 71.570312 395.882812 71.789062 396.101562 71.933594 C 396.316406 72.078125 396.53125 72.148438 396.75 72.148438 C 396.894531 72.148438 396.96875 72.148438 397.113281 72.078125 L 397.328125 72.003906 C 397.328125 72.003906 397.398438 71.933594 397.472656 71.933594 C 397.6875 71.859375 397.90625 71.644531 398.121094 71.5 C 398.339844 71.28125 398.484375 71.066406 398.628906 70.851562 C 398.773438 70.632812 398.917969 70.417969 398.988281 70.199219 C 399.207031 69.769531 399.351562 69.40625 399.496094 69.191406 C 399.710938 68.972656 399.785156 68.832031 399.785156 68.832031 Z M 399.785156 68.832031 "/>
<path style=" stroke:none;fill-rule:nonzero;fill:rgb(46.27451%,25.490196%,23.137255%);fill-opacity:1;" d="M 412.933594 74.820312 C 413.148438 74.53125 413.292969 74.3125 413.4375 74.023438 C 413.582031 73.734375 413.652344 73.449219 413.726562 73.160156 C 413.726562 73.015625 413.726562 72.871094 413.726562 72.726562 C 413.726562 72.652344 413.652344 72.582031 413.652344 72.582031 C 413.652344 72.507812 413.582031 72.4375 413.507812 72.4375 C 413.4375 72.363281 413.4375 72.363281 413.363281 72.292969 L 413.21875 72.148438 C 413.148438 72.078125 413.078125 72.078125 413.003906 72.078125 L 412.789062 72.003906 L 412.640625 71.933594 L 412.640625 71.789062 C 412.425781 70.996094 412.351562 70.273438 412.28125 69.480469 C 412.207031 69.117188 412.207031 68.6875 412.28125 68.324219 C 412.28125 67.890625 412.351562 67.53125 412.496094 67.097656 C 412.570312 66.882812 412.714844 66.664062 412.933594 66.519531 C 413.148438 66.378906 413.4375 66.234375 413.652344 66.304688 C 413.941406 66.304688 414.085938 66.378906 414.304688 66.449219 C 414.519531 66.519531 414.738281 66.59375 414.882812 66.738281 C 415.027344 66.882812 415.242188 67.027344 415.316406 67.171875 C 415.460938 67.316406 415.53125 67.53125 415.605469 67.675781 C 415.75 68.035156 415.820312 68.46875 415.75 68.832031 C 415.675781 68.46875 415.605469 68.109375 415.386719 67.746094 C 415.316406 67.605469 415.171875 67.460938 415.027344 67.316406 C 414.882812 67.171875 414.738281 67.097656 414.59375 67.027344 C 414.449219 66.953125 414.304688 66.882812 414.085938 66.882812 C 413.941406 66.882812 413.726562 66.808594 413.582031 66.808594 C 413.292969 66.808594 413.148438 67.027344 413.078125 67.316406 C 412.859375 67.964844 412.933594 68.6875 412.933594 69.40625 C 413.003906 70.128906 413.078125 70.921875 413.21875 71.644531 L 413.078125 71.425781 L 413.292969 71.570312 C 413.363281 71.644531 413.4375 71.644531 413.507812 71.714844 L 413.726562 71.859375 C 413.796875 71.933594 413.871094 72.003906 413.941406 72.078125 C 414.015625 72.148438 414.085938 72.222656 414.085938 72.363281 C 414.160156 72.4375 414.160156 72.582031 414.160156 72.652344 C 414.230469 72.871094 414.160156 73.015625 414.160156 73.230469 C 414.085938 73.589844 413.871094 73.878906 413.652344 74.167969 C 413.4375 74.386719 413.148438 74.675781 412.933594 74.820312 Z M 412.933594 74.820312 "/>
<path style=" stroke:none;fill-rule:nonzero;fill:rgb(46.27451%,25.490196%,23.137255%);fill-opacity:1;" d="M 388.949219 77.847656 C 388.585938 77.921875 388.296875 77.921875 388.007812 77.921875 C 387.71875 77.921875 387.429688 77.847656 387.214844 77.777344 C 386.925781 77.703125 386.707031 77.558594 386.492188 77.488281 C 386.347656 77.414062 386.273438 77.34375 386.128906 77.273438 C 385.988281 77.199219 385.914062 77.128906 385.769531 77.054688 L 385.335938 76.695312 L 385.410156 76.40625 C 386.128906 74.3125 386.851562 72.292969 387.574219 70.273438 C 388.296875 68.253906 389.09375 66.160156 389.886719 64.140625 C 389.382812 66.234375 388.804688 68.398438 388.296875 70.488281 C 387.71875 72.582031 387.140625 74.675781 386.5625 76.765625 L 386.273438 76.117188 C 386.417969 76.117188 386.5625 76.1875 386.707031 76.1875 C 386.851562 76.1875 387 76.261719 387.070312 76.332031 C 387.285156 76.40625 387.574219 76.550781 387.792969 76.695312 C 388.007812 76.839844 388.226562 77.054688 388.441406 77.273438 C 388.585938 77.34375 388.804688 77.558594 388.949219 77.847656 Z M 388.949219 77.847656 "/>
<path style=" stroke:none;fill-rule:nonzero;fill:rgb(1.960784%,12.156863%,21.960784%);fill-opacity:1;" d="M 393.210938 60.386719 C 393.210938 60.386719 393.28125 60.171875 393.5 59.957031 C 393.644531 59.8125 393.714844 59.667969 393.933594 59.449219 C 394.148438 59.304688 394.292969 59.089844 394.582031 58.945312 C 394.800781 58.800781 395.089844 58.585938 395.449219 58.441406 C 395.738281 58.296875 396.101562 58.152344 396.460938 58.007812 C 396.824219 57.933594 397.257812 57.792969 397.6875 57.792969 C 397.90625 57.792969 398.121094 57.792969 398.339844 57.792969 L 398.988281 57.863281 C 399.421875 57.863281 399.855469 58.078125 400.21875 58.152344 C 400.578125 58.296875 400.941406 58.511719 401.300781 58.65625 C 401.664062 58.875 401.949219 59.089844 402.167969 59.304688 C 402.457031 59.523438 402.671875 59.8125 402.820312 60.027344 C 403.035156 60.246094 403.179688 60.460938 403.324219 60.675781 C 403.46875 60.894531 403.539062 61.109375 403.613281 61.253906 C 403.757812 61.542969 403.828125 61.757812 403.828125 61.757812 C 403.828125 61.757812 403.613281 61.6875 403.324219 61.542969 C 403.179688 61.472656 402.960938 61.398438 402.746094 61.253906 C 402.527344 61.109375 402.3125 61.039062 402.023438 60.964844 C 401.808594 60.894531 401.519531 60.75 401.230469 60.605469 C 400.941406 60.53125 400.652344 60.386719 400.363281 60.316406 C 400.074219 60.246094 399.785156 60.171875 399.496094 60.101562 C 399.207031 60.101562 398.917969 59.957031 398.554688 59.957031 L 398.121094 59.882812 L 397.6875 59.882812 C 397.398438 59.882812 397.039062 59.882812 396.75 59.882812 C 396.460938 59.882812 396.171875 59.882812 395.882812 59.957031 C 395.59375 59.957031 395.304688 60.027344 395.015625 60.027344 C 394.511719 60.101562 394.003906 60.171875 393.714844 60.246094 C 393.425781 60.386719 393.210938 60.386719 393.210938 60.386719 Z M 393.210938 60.386719 "/>
<path style=" stroke:none;fill-rule:nonzero;fill:rgb(3.529412%,11.764706%,11.372549%);fill-opacity:1;" d="M 383.242188 307.136719 C 383.242188 309.734375 381.148438 311.898438 378.546875 311.972656 C 375.945312 311.972656 373.777344 309.878906 373.707031 307.28125 L 373.488281 291.988281 C 373.488281 289.390625 375.585938 287.222656 378.183594 287.152344 C 380.785156 287.152344 382.953125 289.246094 383.023438 291.84375 Z M 383.242188 307.136719 "/>
<path style=" stroke:none;fill-rule:nonzero;fill:rgb(3.529412%,11.764706%,11.372549%);fill-opacity:1;" d="M 316.710938 307.933594 C 316.710938 310.527344 314.613281 312.695312 312.015625 312.765625 C 309.414062 312.765625 307.246094 310.671875 307.171875 308.074219 L 306.957031 292.78125 C 306.957031 290.183594 309.050781 288.019531 311.652344 287.945312 C 314.253906 287.945312 316.421875 290.039062 316.492188 292.636719 Z M 316.710938 307.933594 "/>
<path style=" stroke:none;fill-rule:nonzero;fill:rgb(20.392157%,79.607843%,47.45098%);fill-opacity:1;" d="M 377.894531 296.242188 C 377.96875 302.160156 373.199219 306.992188 367.277344 307.066406 L 322.777344 307.570312 C 316.855469 307.644531 312.015625 302.882812 311.941406 296.964844 L 307.171875 195.8125 C 307.101562 189.894531 311.871094 185.0625 317.792969 184.988281 L 369.445312 184.339844 C 375.367188 184.269531 380.207031 189.03125 380.28125 194.945312 Z M 377.894531 296.242188 "/>
<use xlink:href="#surface20" mask="url(#mask5)"/>
<path style=" stroke:none;fill-rule:nonzero;fill:rgb(20.392157%,79.607843%,47.45098%);fill-opacity:1;" d="M 388.804688 192.566406 C 388.804688 194.222656 387.503906 195.523438 385.84375 195.59375 L 301.464844 196.605469 C 299.804688 196.605469 298.503906 195.308594 298.433594 193.648438 L 298.289062 182.96875 C 298.289062 181.308594 299.589844 180.011719 301.25 179.9375 L 385.625 178.929688 C 387.285156 178.929688 388.585938 180.226562 388.660156 181.886719 Z M 388.804688 192.566406 "/>
<path style=" stroke:none;fill-rule:nonzero;fill:rgb(100%,100%,100%);fill-opacity:1;" d="M 344.015625 222.21875 L 353.839844 216.300781 L 351.457031 222.433594 Z M 344.015625 222.21875 "/>
<path style=" stroke:none;fill-rule:nonzero;fill:rgb(100%,100%,100%);fill-opacity:1;" d="M 340.332031 212.910156 C 340.332031 212.910156 341.125 212.910156 342.355469 214.785156 C 343.582031 216.664062 346.328125 221.714844 346.328125 221.714844 L 351.3125 219.476562 L 352.46875 217.527344 C 352.46875 217.527344 350.300781 213.199219 348.566406 212.910156 Z M 340.332031 212.910156 "/>
<path style=" stroke:none;fill-rule:nonzero;fill:rgb(100%,100%,100%);fill-opacity:1;" d="M 337.585938 214.210938 C 337.585938 214.210938 339.101562 212.550781 340.332031 213.417969 C 341.558594 214.28125 343.726562 217.890625 343.726562 217.890625 L 340.1875 224.09375 L 333.832031 220.558594 Z M 337.585938 214.210938 "/>
<path style=" stroke:none;fill-rule:nonzero;fill:rgb(100%,100%,100%);fill-opacity:1;" d="M 348.496094 229.9375 L 349 241.335938 L 344.738281 236.359375 Z M 348.496094 229.9375 "/>
<path style=" stroke:none;fill-rule:nonzero;fill:rgb(100%,100%,100%);fill-opacity:1;" d="M 358.464844 231.09375 C 358.464844 231.09375 358.101562 231.8125 355.863281 232.03125 C 353.625 232.246094 347.84375 232.246094 347.84375 232.246094 L 347.410156 237.730469 L 348.566406 239.679688 C 348.566406 239.679688 353.40625 239.894531 354.488281 238.453125 Z M 358.464844 231.09375 "/>
<path style=" stroke:none;fill-rule:nonzero;fill:rgb(100%,100%,100%);fill-opacity:1;" d="M 358.535156 228.0625 C 358.535156 228.0625 359.332031 230.15625 357.957031 230.875 C 356.65625 231.527344 352.394531 231.667969 352.394531 231.667969 L 348.566406 225.609375 L 354.707031 221.640625 Z M 358.535156 228.0625 "/>
<path style=" stroke:none;fill-rule:nonzero;fill:rgb(100%,100%,100%);fill-opacity:1;" d="M 339.824219 229.792969 L 329.710938 224.453125 L 336.214844 223.300781 Z M 339.824219 229.792969 "/>
<path style=" stroke:none;fill-rule:nonzero;fill:rgb(100%,100%,100%);fill-opacity:1;" d="M 333.832031 237.804688 C 333.832031 237.804688 333.398438 237.152344 334.335938 235.132812 C 335.273438 233.113281 338.164062 228.136719 338.164062 228.136719 L 333.6875 225.03125 L 331.445312 225.105469 C 331.445312 225.105469 328.84375 229.21875 329.496094 230.804688 Z M 333.832031 237.804688 "/>
<path style=" stroke:none;fill-rule:nonzero;fill:rgb(100%,100%,100%);fill-opacity:1;" d="M 336.359375 239.390625 C 336.359375 239.390625 334.117188 238.957031 334.261719 237.515625 C 334.335938 236 336.359375 232.320312 336.359375 232.320312 L 343.511719 232.101562 L 343.800781 239.390625 Z M 336.359375 239.390625 "/>
<path style=" stroke:none;fill-rule:nonzero;fill:rgb(1.960784%,12.156863%,21.960784%);fill-opacity:1;" d="M 188.992188 278.566406 C 188.992188 278.566406 187.402344 304.035156 186.027344 304.539062 C 180.753906 306.34375 140.953125 316.445312 178.589844 299.488281 L 177.578125 280.949219 Z M 188.992188 278.566406 "/>
<path style=" stroke:none;fill-rule:nonzero;fill:rgb(1.568627%,8.235294%,13.72549%);fill-opacity:1;" d="M 187.328125 298.335938 C 188.269531 290.617188 188.992188 278.566406 188.992188 278.566406 L 177.578125 280.949219 L 178.515625 297.46875 C 181.332031 298.261719 184.585938 298.335938 187.328125 298.335938 Z M 187.328125 298.335938 "/>
<path style=" stroke:none;fill-rule:nonzero;fill:rgb(100%,100%,100%);fill-opacity:1;" d="M 162.625 308.363281 C 161.46875 311.179688 182.273438 305.839844 186.027344 304.539062 C 186.101562 304.46875 186.246094 304.324219 186.390625 303.964844 C 181.695312 305.261719 167.464844 308.507812 162.625 308.363281 Z M 162.625 308.363281 "/>
<path style=" stroke:none;fill-rule:nonzero;fill:rgb(1.960784%,12.156863%,21.960784%);fill-opacity:1;" d="M 213.335938 277.195312 C 213.335938 277.195312 215.429688 302.664062 216.875 303.097656 C 222.21875 304.828125 262.167969 314.136719 224.171875 297.902344 L 224.820312 279.359375 Z M 213.335938 277.195312 "/>
<path style=" stroke:none;fill-rule:nonzero;fill:rgb(1.568627%,8.235294%,13.72549%);fill-opacity:1;" d="M 215.429688 296.890625 C 214.347656 289.246094 213.335938 277.195312 213.335938 277.195312 L 224.820312 279.359375 L 224.242188 295.882812 C 221.425781 296.75 218.175781 296.820312 215.429688 296.890625 Z M 215.429688 296.890625 "/>
<path style=" stroke:none;fill-rule:nonzero;fill:rgb(100%,100%,100%);fill-opacity:1;" d="M 240.351562 306.488281 C 241.582031 309.300781 220.632812 304.324219 216.875 303.097656 C 216.730469 303.097656 216.660156 302.882812 216.515625 302.519531 C 221.210938 303.820312 235.511719 306.777344 240.351562 306.488281 Z M 240.351562 306.488281 "/>
<path style=" stroke:none;fill-rule:nonzero;fill:rgb(20.392157%,79.607843%,47.45098%);fill-opacity:1;" d="M 220.34375 139.679688 C 220.34375 139.679688 230.746094 223.589844 228.648438 291.480469 C 228.648438 291.480469 216.226562 294.945312 212.972656 292.417969 C 210.15625 276.332031 210.519531 245.019531 206.328125 221.785156 C 202.355469 199.851562 200.765625 181.886719 200.765625 181.886719 L 199.464844 180.445312 C 199.464844 180.445312 190.941406 286.503906 189.0625 294.585938 C 178.300781 297.109375 174.902344 294.152344 174.902344 294.152344 C 174.902344 294.152344 169.992188 161.46875 173.027344 140.039062 C 176.925781 112.046875 220.34375 139.679688 220.34375 139.679688 Z M 220.34375 139.679688 "/>
<use xlink:href="#surface23" mask="url(#mask6)"/>
<use xlink:href="#surface26" mask="url(#mask7)"/>
<path style=" stroke:none;fill-rule:nonzero;fill:rgb(100%,70.196078%,62.352941%);fill-opacity:1;" d="M 203.65625 66.304688 C 203.726562 57.503906 204.378906 45.886719 204.378906 45.886719 L 187.039062 41.125 C 187.039062 41.125 187.617188 56.851562 188.125 66.449219 C 180.25 69.117188 171.292969 74.167969 171.292969 74.167969 L 204.015625 82.464844 L 215.648438 71.210938 C 215.648438 71.210938 209.796875 68.253906 203.65625 66.304688 Z M 203.65625 66.304688 "/>
<path style=" stroke:none;fill-rule:nonzero;fill:rgb(87.843137%,60.784314%,55.294118%);fill-opacity:1;" d="M 203.65625 66.304688 C 203.726562 57.503906 204.378906 45.886719 204.378906 45.886719 L 187.039062 41.125 C 187.039062 41.125 187.617188 56.851562 188.125 66.449219 C 180.25 69.117188 171.292969 74.167969 171.292969 74.167969 L 204.015625 82.464844 L 219.476562 69.191406 C 219.476562 69.191406 209.867188 65.582031 203.65625 66.304688 Z M 203.65625 66.304688 "/>
<path style=" stroke:none;fill-rule:nonzero;fill:rgb(100%,70.196078%,62.352941%);fill-opacity:1;" d="M 185.523438 24.457031 C 185.523438 24.457031 190.074219 9.738281 202.066406 12.050781 C 214.058594 14.359375 215.792969 30.015625 217.308594 40.546875 C 218.824219 51.152344 215.429688 60.675781 206.039062 61.832031 C 197.875 62.839844 183.644531 61.253906 185.523438 24.457031 Z M 185.523438 24.457031 "/>
<path style=" stroke:none;fill-rule:nonzero;fill:rgb(100%,70.196078%,62.352941%);fill-opacity:1;" d="M 186.101562 36.796875 C 186.101562 36.796875 185.378906 34.847656 182.417969 37.011719 C 178.660156 39.753906 182.488281 49.855469 187.039062 48.773438 C 191.589844 47.691406 186.101562 36.796875 186.101562 36.796875 Z M 186.101562 36.796875 "/>
<path style=" stroke:none;fill-rule:nonzero;fill:rgb(1.960784%,12.156863%,21.960784%);fill-opacity:1;" d="M 181.910156 16.015625 C 182.199219 15.945312 187.835938 15.511719 184.078125 15.871094 C 187.546875 19.625 187.183594 20.5625 191.953125 21.429688 C 194.480469 29.21875 189.496094 33.910156 189.496094 33.910156 L 190.867188 43.289062 L 187.257812 43.648438 C 187.257812 43.648438 187.328125 37.15625 184.585938 36.578125 C 181.839844 36.003906 181.042969 39.320312 181.042969 39.320312 C 175.335938 32.105469 169.558594 17.964844 181.910156 16.015625 Z M 181.910156 16.015625 "/>
<path style=" stroke:none;fill-rule:nonzero;fill:rgb(1.960784%,12.156863%,21.960784%);fill-opacity:1;" d="M 214.636719 10.75 C 216.945312 5.050781 213.046875 0 213.046875 0 C 213.695312 2.09375 213.40625 4.039062 212.757812 5.628906 C 212.324219 4.039062 211.527344 2.308594 210.085938 0.578125 C 210.085938 0.578125 210.519531 6.347656 202.644531 5.628906 C 194.769531 4.90625 180.972656 5.988281 180.394531 18.179688 C 179.742188 30.375 191.519531 21.5 191.519531 21.5 C 191.519531 21.5 214.996094 28.066406 218.390625 9.164062 Z M 214.636719 10.75 "/>
<path style=" stroke:none;fill-rule:nonzero;fill:rgb(1.960784%,12.156863%,21.960784%);fill-opacity:1;" d="M 203.511719 31.816406 C 203.511719 31.816406 203.292969 31.816406 203.003906 31.746094 C 202.644531 31.675781 202.210938 31.601562 201.703125 31.53125 C 201.414062 31.457031 201.199219 31.457031 200.910156 31.457031 C 200.621094 31.386719 200.332031 31.386719 200.042969 31.386719 C 199.753906 31.386719 199.464844 31.386719 199.105469 31.386719 C 198.960938 31.386719 198.816406 31.386719 198.671875 31.386719 L 198.238281 31.457031 C 197.949219 31.457031 197.660156 31.53125 197.296875 31.601562 C 197.007812 31.675781 196.71875 31.746094 196.429688 31.816406 C 196.140625 31.890625 195.855469 32.035156 195.566406 32.105469 C 195.273438 32.179688 195.058594 32.324219 194.769531 32.394531 C 194.554688 32.46875 194.265625 32.539062 194.121094 32.683594 C 193.902344 32.757812 193.757812 32.828125 193.613281 32.902344 C 193.324219 33.042969 193.109375 33.117188 193.109375 33.117188 C 193.109375 33.117188 193.179688 32.902344 193.324219 32.613281 C 193.398438 32.46875 193.46875 32.25 193.613281 32.035156 C 193.757812 31.816406 193.902344 31.601562 194.121094 31.386719 C 194.335938 31.167969 194.480469 30.878906 194.769531 30.664062 C 195.058594 30.449219 195.347656 30.230469 195.710938 30.015625 C 196.070312 29.871094 196.429688 29.652344 196.792969 29.507812 C 197.226562 29.363281 197.585938 29.292969 198.019531 29.222656 L 198.671875 29.148438 C 198.886719 29.148438 199.105469 29.148438 199.320312 29.222656 C 199.539062 29.222656 199.753906 29.292969 199.898438 29.292969 C 200.117188 29.363281 200.261719 29.363281 200.476562 29.4375 C 200.835938 29.582031 201.199219 29.652344 201.488281 29.871094 C 201.777344 30.015625 202.066406 30.230469 202.355469 30.375 C 202.570312 30.519531 202.789062 30.734375 203.003906 30.878906 C 203.148438 31.023438 203.292969 31.242188 203.4375 31.3125 C 203.367188 31.601562 203.511719 31.816406 203.511719 31.816406 Z M 203.511719 31.816406 "/>
<path style=" stroke:none;fill-rule:nonzero;fill:rgb(1.960784%,12.156863%,21.960784%);fill-opacity:1;" d="M 215.71875 31.457031 C 215.71875 31.457031 215.574219 31.382812 215.285156 31.3125 C 214.996094 31.242188 214.636719 31.097656 214.273438 30.953125 C 214.058594 30.878906 213.839844 30.808594 213.625 30.734375 C 213.40625 30.664062 213.191406 30.589844 212.972656 30.589844 C 212.757812 30.589844 212.539062 30.519531 212.324219 30.445312 C 212.25 30.445312 212.105469 30.445312 212.035156 30.375 L 211.746094 30.375 C 211.527344 30.300781 211.3125 30.445312 211.09375 30.375 C 210.878906 30.445312 210.664062 30.445312 210.445312 30.519531 C 210.230469 30.589844 210.011719 30.664062 209.796875 30.734375 C 209.578125 30.808594 209.363281 30.878906 209.21875 30.953125 C 209 31.023438 208.785156 31.097656 208.640625 31.167969 C 208.496094 31.242188 208.351562 31.3125 208.207031 31.3125 C 207.917969 31.382812 207.773438 31.457031 207.773438 31.457031 C 207.773438 31.457031 207.773438 31.3125 207.917969 31.023438 C 207.988281 30.878906 207.988281 30.734375 208.132812 30.519531 C 208.207031 30.300781 208.351562 30.160156 208.496094 29.941406 C 208.640625 29.726562 208.785156 29.507812 209 29.292969 C 209.21875 29.074219 209.507812 28.933594 209.722656 28.714844 C 210.011719 28.570312 210.375 28.425781 210.664062 28.28125 C 211.023438 28.210938 211.382812 28.136719 211.746094 28.136719 C 211.960938 28.136719 212.105469 28.136719 212.324219 28.136719 C 212.539062 28.136719 212.683594 28.210938 212.828125 28.28125 C 212.972656 28.28125 213.191406 28.355469 213.335938 28.425781 C 213.480469 28.5 213.625 28.570312 213.769531 28.644531 C 214.347656 29.003906 214.78125 29.363281 215.070312 29.796875 C 215.359375 30.230469 215.5 30.589844 215.644531 30.878906 C 215.71875 31.3125 215.71875 31.457031 215.71875 31.457031 Z M 215.71875 31.457031 "/>
<path style=" stroke:none;fill-rule:nonzero;fill:rgb(86.666667%,56.470588%,47.058824%);fill-opacity:1;" d="M 206.832031 32.25 C 207.265625 33.1875 207.699219 34.199219 208.132812 35.136719 C 208.351562 35.640625 208.496094 36.074219 208.710938 36.578125 L 209.289062 38.023438 L 209.867188 39.464844 C 210.085938 39.96875 210.230469 40.402344 210.445312 40.910156 L 210.734375 41.628906 C 210.804688 41.847656 210.949219 42.136719 211.023438 42.351562 C 211.242188 42.785156 211.457031 43.21875 211.675781 43.722656 L 211.890625 44.300781 L 211.457031 44.515625 C 210.804688 44.804688 210.15625 45.164062 209.433594 45.453125 C 208.785156 45.742188 208.0625 46.03125 207.339844 46.246094 C 207.917969 45.742188 208.496094 45.308594 209.074219 44.875 C 209.652344 44.445312 210.300781 44.011719 210.878906 43.578125 L 210.664062 44.371094 C 210.375 43.9375 210.085938 43.433594 209.796875 43 C 209.507812 42.566406 209.289062 42.0625 209.074219 41.558594 L 208.710938 40.835938 L 208.421875 40.113281 C 208.277344 39.609375 208.0625 39.105469 207.917969 38.601562 L 207.484375 37.085938 C 207.339844 36.578125 207.265625 36.074219 207.121094 35.570312 C 207.050781 34.414062 206.90625 33.332031 206.832031 32.25 Z M 206.832031 32.25 "/>
<path style=" stroke:none;fill-rule:nonzero;fill:rgb(86.666667%,56.470588%,47.058824%);fill-opacity:1;" d="M 185.882812 46.679688 C 185.59375 46.535156 185.304688 46.320312 185.089844 46.03125 C 184.871094 45.816406 184.585938 45.527344 184.441406 45.164062 C 184.367188 45.019531 184.296875 44.804688 184.296875 44.589844 C 184.296875 44.515625 184.296875 44.371094 184.296875 44.300781 C 184.296875 44.226562 184.367188 44.082031 184.367188 44.011719 C 184.441406 43.792969 184.585938 43.648438 184.726562 43.503906 C 184.800781 43.433594 184.871094 43.363281 184.945312 43.289062 L 185.160156 43.144531 L 185.015625 43.363281 C 185.015625 42.566406 185.015625 41.773438 184.945312 41.050781 C 184.871094 40.257812 184.800781 39.464844 184.511719 38.816406 C 184.441406 38.671875 184.367188 38.527344 184.222656 38.457031 C 184.152344 38.382812 184.007812 38.3125 183.863281 38.3125 C 183.789062 38.3125 183.714844 38.3125 183.644531 38.382812 C 183.574219 38.382812 183.429688 38.457031 183.355469 38.457031 C 183.210938 38.527344 183.066406 38.601562 182.921875 38.742188 C 182.777344 38.886719 182.632812 38.960938 182.5625 39.105469 C 182.488281 39.25 182.34375 39.394531 182.273438 39.609375 C 182.128906 39.96875 182.054688 40.332031 182.054688 40.765625 C 181.910156 40.402344 181.910156 39.96875 181.984375 39.539062 C 181.984375 39.320312 182.054688 39.105469 182.199219 38.960938 C 182.273438 38.742188 182.417969 38.601562 182.5625 38.457031 L 182.777344 38.238281 L 183.066406 38.023438 C 183.140625 37.949219 183.285156 37.949219 183.355469 37.878906 C 183.429688 37.804688 183.574219 37.804688 183.714844 37.734375 C 184.007812 37.660156 184.296875 37.734375 184.511719 37.949219 C 184.726562 38.09375 184.871094 38.3125 184.945312 38.527344 C 185.160156 38.960938 185.234375 39.320312 185.378906 39.753906 C 185.449219 40.1875 185.523438 40.546875 185.523438 40.980469 C 185.59375 41.773438 185.59375 42.566406 185.523438 43.433594 L 185.523438 43.578125 L 185.378906 43.648438 C 185.234375 43.722656 185.089844 43.792969 185.015625 43.9375 C 184.945312 44.011719 184.800781 44.15625 184.726562 44.226562 C 184.65625 44.300781 184.65625 44.371094 184.65625 44.445312 C 184.65625 44.515625 184.585938 44.589844 184.585938 44.660156 C 184.585938 44.804688 184.585938 44.949219 184.585938 45.09375 C 184.65625 45.382812 184.800781 45.671875 185.015625 45.957031 C 185.449219 46.246094 185.667969 46.464844 185.882812 46.679688 Z M 185.882812 46.679688 "/>
<path style=" stroke:none;fill-rule:nonzero;fill:rgb(12.156863%,15.294118%,20%);fill-opacity:1;" d="M 197.226562 38.671875 C 197.226562 38.671875 197.296875 38.816406 197.371094 39.105469 C 197.441406 39.25 197.441406 39.394531 197.515625 39.539062 C 197.585938 39.683594 197.660156 39.898438 197.804688 40.113281 C 197.875 40.332031 198.09375 40.476562 198.164062 40.691406 C 198.238281 40.765625 198.308594 40.835938 198.453125 40.980469 C 198.527344 41.050781 198.597656 41.125 198.742188 41.195312 C 198.960938 41.339844 199.175781 41.414062 199.394531 41.484375 C 199.539062 41.484375 199.609375 41.558594 199.753906 41.558594 C 199.898438 41.558594 199.972656 41.558594 200.117188 41.484375 L 200.476562 41.339844 L 200.835938 41.125 C 201.054688 40.980469 201.199219 40.765625 201.34375 40.546875 C 201.488281 40.332031 201.558594 40.113281 201.703125 39.898438 C 201.777344 39.683594 201.847656 39.464844 201.847656 39.175781 C 201.847656 38.960938 201.847656 38.742188 201.921875 38.601562 C 201.921875 38.382812 201.921875 38.238281 201.921875 38.09375 C 201.921875 37.804688 201.921875 37.660156 201.921875 37.660156 C 201.921875 37.660156 201.992188 37.804688 202.066406 38.09375 C 202.136719 38.238281 202.136719 38.382812 202.210938 38.601562 C 202.210938 38.816406 202.28125 39.03125 202.28125 39.25 C 202.28125 39.464844 202.28125 39.753906 202.210938 40.042969 C 202.136719 40.332031 202.066406 40.621094 201.921875 40.910156 C 201.777344 41.195312 201.558594 41.484375 201.269531 41.703125 L 200.835938 41.992188 C 200.691406 42.0625 200.476562 42.136719 200.332031 42.207031 C 200.1875 42.207031 199.972656 42.277344 199.753906 42.277344 C 199.609375 42.277344 199.394531 42.207031 199.25 42.207031 C 198.886719 42.136719 198.597656 41.917969 198.308594 41.703125 C 198.019531 41.484375 197.875 41.195312 197.730469 40.980469 C 197.585938 40.691406 197.441406 40.476562 197.371094 40.257812 C 197.296875 40.042969 197.226562 39.824219 197.226562 39.609375 C 197.226562 39.394531 197.226562 39.25 197.226562 39.105469 C 197.226562 38.816406 197.226562 38.671875 197.226562 38.671875 Z M 197.226562 38.671875 "/>
<path style=" stroke:none;fill-rule:nonzero;fill:rgb(12.156863%,15.294118%,20%);fill-opacity:1;" d="M 210.300781 36.507812 C 210.300781 36.507812 210.375 36.652344 210.445312 36.941406 C 210.519531 37.085938 210.519531 37.230469 210.589844 37.375 C 210.664062 37.515625 210.734375 37.734375 210.878906 37.949219 C 210.949219 38.167969 211.167969 38.3125 211.242188 38.527344 C 211.3125 38.601562 211.386719 38.671875 211.53125 38.816406 C 211.601562 38.886719 211.675781 38.960938 211.816406 39.03125 C 212.035156 39.175781 212.25 39.25 212.46875 39.320312 C 212.613281 39.320312 212.683594 39.394531 212.828125 39.394531 C 212.972656 39.394531 213.046875 39.394531 213.191406 39.320312 L 213.550781 39.175781 L 213.914062 38.960938 C 214.128906 38.816406 214.273438 38.601562 214.417969 38.382812 C 214.5625 38.167969 214.636719 37.949219 214.78125 37.734375 C 214.851562 37.515625 214.925781 37.300781 214.925781 37.011719 C 214.925781 36.796875 214.925781 36.578125 214.996094 36.433594 C 214.996094 36.21875 214.996094 36.074219 214.996094 35.929688 C 214.996094 35.640625 214.996094 35.496094 214.996094 35.496094 C 214.996094 35.496094 215.070312 35.640625 215.140625 35.929688 C 215.214844 36.074219 215.214844 36.21875 215.285156 36.433594 C 215.285156 36.652344 215.359375 36.867188 215.359375 37.085938 C 215.359375 37.300781 215.359375 37.589844 215.285156 37.878906 C 215.214844 38.167969 215.140625 38.457031 214.996094 38.742188 C 214.851562 39.03125 214.636719 39.320312 214.347656 39.539062 L 213.914062 39.828125 C 213.769531 39.898438 213.550781 39.96875 213.40625 40.042969 C 213.261719 40.042969 213.046875 40.113281 212.828125 40.113281 C 212.683594 40.113281 212.46875 40.042969 212.324219 40.042969 C 211.960938 39.96875 211.675781 39.753906 211.386719 39.539062 C 211.09375 39.320312 210.949219 39.03125 210.804688 38.816406 C 210.664062 38.527344 210.519531 38.3125 210.445312 38.09375 C 210.375 37.878906 210.300781 37.660156 210.300781 37.445312 C 210.300781 37.230469 210.300781 37.085938 210.300781 36.941406 C 210.300781 36.652344 210.300781 36.507812 210.300781 36.507812 Z M 210.300781 36.507812 "/>
<path style=" stroke:none;fill-rule:nonzero;fill:rgb(86.666667%,56.470588%,47.058824%);fill-opacity:1;" d="M 198.363281 48.875 C 198.363281 48.875 198.289062 48.875 198.363281 48.945312 C 198.433594 49.019531 198.578125 49.089844 198.726562 49.164062 C 199.015625 49.378906 199.519531 49.59375 200.097656 49.882812 C 200.675781 50.171875 201.398438 50.460938 202.121094 50.675781 C 202.480469 50.820312 202.914062 50.894531 203.277344 50.964844 C 203.636719 51.039062 204.070312 51.109375 204.503906 51.183594 C 205.296875 51.253906 206.09375 51.328125 206.886719 51.253906 C 207.683594 51.183594 208.332031 51.039062 208.984375 50.820312 C 209.558594 50.605469 210.066406 50.460938 210.425781 50.316406 C 210.789062 50.171875 211.003906 50.101562 211.003906 50.101562 C 211.003906 50.101562 210.859375 50.316406 210.570312 50.53125 C 210.28125 50.820312 209.847656 51.183594 209.273438 51.542969 C 208.695312 51.902344 207.898438 52.265625 207.03125 52.410156 C 206.164062 52.625 205.226562 52.625 204.285156 52.554688 C 203.851562 52.480469 203.347656 52.410156 202.914062 52.265625 C 202.480469 52.121094 202.046875 51.976562 201.6875 51.757812 C 200.890625 51.398438 200.242188 50.964844 199.734375 50.53125 C 199.230469 50.101562 198.796875 49.667969 198.578125 49.308594 C 198.433594 49.164062 198.363281 49.019531 198.363281 48.875 C 198.289062 48.875 198.289062 48.945312 198.363281 48.875 Z M 198.363281 48.875 "/>
<path style=" stroke:none;fill-rule:nonzero;fill:rgb(40%,20%,80%);fill-opacity:1;" d="M 209.652344 66.089844 C 209.652344 66.089844 228.144531 64.140625 230.527344 78.28125 C 232.914062 92.496094 232.695312 96.320312 232.695312 96.320312 L 214.636719 93.648438 Z M 209.652344 66.089844 "/>
<path style=" stroke:none;fill-rule:nonzero;fill:rgb(40%,20%,80%);fill-opacity:1;" d="M 225.253906 77.488281 C 224.171875 68.46875 214.996094 66.519531 209.652344 66.085938 C 207.265625 69.40625 203.945312 71.789062 199.394531 71.933594 C 194.191406 72.074219 189.421875 70.273438 186.894531 66.304688 C 178.804688 67.242188 170.785156 69.550781 168.980469 75.035156 C 165.152344 86.578125 168.472656 150.070312 168.472656 150.070312 C 168.472656 150.070312 200.835938 155.625 227.421875 150.574219 C 227.347656 150.644531 226.699219 89.535156 225.253906 77.488281 Z M 225.253906 77.488281 "/>
<use xlink:href="#surface29" mask="url(#mask8)"/>
<path style=" stroke:none;fill-rule:nonzero;fill:rgb(88.235294%,92.941176%,100%);fill-opacity:1;" d="M 187.039062 122.652344 C 187.039062 122.652344 186.316406 120.5625 189.640625 119.191406 C 192.964844 117.820312 227.203125 108.871094 229.371094 109.160156 C 231.539062 109.449219 258.050781 112.625 258.484375 114.066406 C 258.917969 115.511719 226.769531 125.898438 226.769531 125.898438 Z M 187.039062 122.652344 "/>
<path style=" stroke:none;fill-rule:nonzero;fill:rgb(75.294118%,83.529412%,100%);fill-opacity:1;" d="M 228.578125 128.640625 C 228.578125 128.640625 191.085938 128.496094 188.195312 125.105469 C 185.304688 121.714844 185.234375 119.261719 201.632812 122.148438 C 218.03125 125.035156 227.492188 124.601562 227.492188 124.601562 C 227.492188 124.601562 257.546875 110.605469 258.554688 113.996094 C 259.496094 117.457031 262.675781 116.59375 228.578125 128.640625 Z M 228.578125 128.640625 "/>
<path style=" stroke:none;fill-rule:nonzero;fill:rgb(69.411765%,77.254902%,90.980392%);fill-opacity:1;" d="M 258.484375 114.066406 C 257.546875 110.675781 227.421875 124.671875 227.421875 124.671875 C 227.421875 124.671875 227.347656 124.671875 227.132812 124.671875 C 227.78125 125.972656 228.289062 127.199219 228.867188 128.570312 C 262.675781 116.59375 259.496094 117.457031 258.484375 114.066406 Z M 258.484375 114.066406 "/>
<path style=" stroke:none;fill-rule:nonzero;fill:rgb(88.235294%,92.941176%,100%);fill-opacity:1;" d="M 185.957031 114.933594 C 185.957031 114.933594 185.234375 112.839844 188.554688 111.46875 C 191.878906 110.097656 226.121094 101.152344 228.289062 101.441406 C 230.453125 101.730469 256.964844 104.90625 257.398438 106.347656 C 257.832031 107.789062 225.6875 118.179688 225.6875 118.179688 Z M 185.957031 114.933594 "/>
<path style=" stroke:none;fill-rule:nonzero;fill:rgb(75.294118%,83.529412%,100%);fill-opacity:1;" d="M 227.492188 120.992188 C 227.492188 120.992188 190 120.847656 187.113281 117.457031 C 184.222656 114.066406 184.148438 111.613281 200.546875 114.5 C 216.945312 117.386719 226.410156 116.953125 226.410156 116.953125 C 226.410156 116.953125 256.460938 102.957031 257.472656 106.347656 C 258.339844 109.738281 261.589844 108.871094 227.492188 120.992188 Z M 227.492188 120.992188 "/>
<path style=" stroke:none;fill-rule:nonzero;fill:rgb(69.411765%,77.254902%,90.980392%);fill-opacity:1;" d="M 257.402344 106.417969 C 256.460938 103.027344 226.339844 117.027344 226.339844 117.027344 C 226.339844 117.027344 226.265625 117.027344 226.050781 117.027344 C 226.699219 118.324219 227.203125 119.550781 227.78125 120.921875 C 261.519531 108.871094 258.339844 109.738281 257.402344 106.417969 Z M 257.402344 106.417969 "/>
<path style=" stroke:none;fill-rule:nonzero;fill:rgb(88.235294%,92.941176%,100%);fill-opacity:1;" d="M 185.8125 108.65625 C 185.8125 108.65625 185.160156 106.851562 188.339844 105.625 C 191.519531 104.398438 224.675781 96.535156 226.769531 96.824219 C 228.867188 97.113281 254.511719 99.925781 254.945312 101.152344 C 255.378906 102.378906 224.242188 111.613281 224.242188 111.613281 Z M 185.8125 108.65625 "/>
<path style=" stroke:none;fill-rule:nonzero;fill:rgb(75.294118%,83.529412%,100%);fill-opacity:1;" d="M 225.976562 113.996094 C 225.976562 113.996094 189.710938 113.851562 186.894531 110.894531 C 184.078125 107.933594 184.078125 105.769531 199.898438 108.296875 C 215.71875 110.820312 224.894531 110.460938 224.894531 110.460938 C 224.894531 110.460938 254.003906 98.121094 254.945312 101.152344 C 255.882812 104.109375 258.988281 103.316406 225.976562 113.996094 Z M 225.976562 113.996094 "/>
<path style=" stroke:none;fill-rule:nonzero;fill:rgb(69.411765%,77.254902%,90.980392%);fill-opacity:1;" d="M 254.945312 101.152344 C 254.003906 98.195312 224.894531 110.460938 224.894531 110.460938 C 224.894531 110.460938 224.820312 110.460938 224.605469 110.460938 C 225.183594 111.542969 225.761719 112.695312 226.265625 113.851562 C 258.988281 103.316406 255.882812 104.109375 254.945312 101.152344 Z M 254.945312 101.152344 "/>
<path style=" stroke:none;fill-rule:nonzero;fill:rgb(100%,100%,100%);fill-opacity:1;" d="M 186.824219 100.214844 C 186.824219 100.214844 186.246094 98.410156 189.496094 97.257812 C 192.746094 96.175781 226.121094 89.535156 228.214844 89.898438 C 230.308594 90.1875 255.8125 94.011719 256.171875 95.238281 C 256.535156 96.464844 225.109375 104.472656 225.109375 104.472656 Z M 186.824219 100.214844 "/>
<path style=" stroke:none;fill-rule:nonzero;fill:rgb(75.294118%,83.529412%,100%);fill-opacity:1;" d="M 226.769531 107.070312 C 226.769531 107.070312 190.507812 105.554688 187.835938 102.523438 C 185.160156 99.421875 185.160156 97.328125 200.910156 100.429688 C 216.65625 103.53125 225.832031 103.53125 225.832031 103.53125 C 225.832031 103.53125 255.378906 92.351562 256.171875 95.308594 C 257.039062 98.265625 260.144531 97.617188 226.769531 107.070312 Z M 226.769531 107.070312 "/>
<path style=" stroke:none;fill-rule:nonzero;fill:rgb(69.411765%,77.254902%,90.980392%);fill-opacity:1;" d="M 256.171875 95.308594 C 255.378906 92.277344 225.832031 103.535156 225.832031 103.535156 C 225.832031 103.535156 225.761719 103.535156 225.542969 103.535156 C 226.121094 104.6875 226.625 105.84375 227.058594 106.996094 C 260.074219 97.617188 256.96875 98.265625 256.171875 95.308594 Z M 256.171875 95.308594 "/>
<path style=" stroke:none;fill-rule:nonzero;fill:rgb(100%,70.196078%,62.352941%);fill-opacity:1;" d="M 167.96875 101.585938 L 185.8125 97.257812 C 185.8125 97.257812 189.640625 123.230469 190.652344 124.671875 C 191.664062 126.117188 221.5 127.558594 221.5 127.558594 L 230.167969 128.0625 C 230.167969 128.0625 193.542969 143.433594 182.996094 137.226562 C 172.304688 130.878906 167.96875 101.585938 167.96875 101.585938 Z M 167.96875 101.585938 "/>
<path style=" stroke:none;fill-rule:nonzero;fill:rgb(87.843137%,60.784314%,55.294118%);fill-opacity:1;" d="M 169.703125 104.6875 C 175.191406 103.027344 180.539062 101.007812 186.171875 99.78125 C 185.957031 98.195312 185.8125 97.257812 185.8125 97.257812 L 167.96875 101.585938 C 167.96875 101.585938 168.1875 102.882812 168.546875 105.050781 C 168.980469 104.90625 169.339844 104.761719 169.703125 104.6875 Z M 169.703125 104.6875 "/>
<path style=" stroke:none;fill-rule:nonzero;fill:rgb(100%,70.196078%,62.352941%);fill-opacity:1;" d="M 226.84375 130.445312 C 226.84375 130.445312 240.425781 126.839844 240.425781 124.097656 C 240.425781 121.355469 235.511719 111.46875 238.980469 124.671875 C 238.980469 124.671875 231.757812 106.78125 237.535156 125.539062 C 237.535156 125.539062 231.902344 110.964844 235.730469 125.898438 C 235.730469 125.898438 229.949219 115.800781 234.140625 126.621094 L 228.9375 128.570312 L 216.441406 128.425781 L 209.796875 134.917969 Z M 226.84375 130.445312 "/>
<path style=" stroke:none;fill-rule:nonzero;fill:rgb(100%,70.196078%,62.352941%);fill-opacity:1;" d="M 258.628906 117.242188 C 258.628906 117.242188 251.40625 99.347656 257.183594 118.109375 C 257.183594 118.109375 251.550781 103.535156 255.378906 118.46875 C 255.378906 118.46875 249.597656 108.367188 253.28125 119.261719 L 249.308594 121.136719 C 250.753906 121.28125 252.632812 121.210938 254.148438 120.703125 C 258.773438 119.765625 260.074219 118.179688 260.074219 116.738281 C 260.074219 113.996094 255.160156 104.109375 258.628906 117.242188 Z M 258.628906 117.242188 "/>
<path style=" stroke:none;fill-rule:nonzero;fill:rgb(3.529412%,11.764706%,11.372549%);fill-opacity:1;" d="M 277.050781 307.136719 C 277.050781 309.734375 274.957031 311.898438 272.355469 311.972656 C 269.753906 311.972656 267.585938 309.878906 267.515625 307.28125 L 267.296875 291.988281 C 267.296875 289.390625 269.394531 287.222656 271.992188 287.152344 C 274.59375 287.152344 276.761719 289.246094 276.832031 291.84375 Z M 277.050781 307.136719 "/>
<path style=" stroke:none;fill-rule:nonzero;fill:rgb(3.529412%,11.764706%,11.372549%);fill-opacity:1;" d="M 210.519531 307.933594 C 210.519531 310.527344 208.421875 312.695312 205.824219 312.765625 C 203.222656 312.765625 201.054688 310.671875 200.980469 308.074219 L 200.765625 292.78125 C 200.765625 290.183594 202.859375 288.019531 205.460938 287.945312 C 208.0625 287.945312 210.230469 290.039062 210.300781 292.636719 Z M 210.519531 307.933594 "/>
<path style=" stroke:none;fill-rule:nonzero;fill:rgb(19.607843%,12.941176%,32.54902%);fill-opacity:1;" d="M 271.703125 296.242188 C 271.777344 302.160156 267.007812 306.992188 261.085938 307.066406 L 216.585938 307.570312 C 210.664062 307.644531 205.824219 302.882812 205.75 296.964844 L 200.984375 195.8125 C 200.910156 189.894531 205.679688 185.0625 211.601562 184.988281 L 263.253906 184.339844 C 269.175781 184.269531 274.015625 189.03125 274.089844 194.945312 Z M 271.703125 296.242188 "/>
<path style=" stroke:none;fill-rule:nonzero;fill:rgb(10.980392%,4.705882%,23.137255%);fill-opacity:1;" d="M 273.800781 205.117188 L 274.015625 195.089844 C 273.945312 189.175781 269.105469 184.414062 263.179688 184.484375 L 211.53125 185.132812 C 205.605469 185.207031 200.835938 190.039062 200.910156 195.957031 L 201.417969 205.984375 Z M 273.800781 205.117188 "/>
<path style=" stroke:none;fill-rule:nonzero;fill:rgb(19.607843%,12.941176%,32.54902%);fill-opacity:1;" d="M 282.613281 192.566406 C 282.613281 194.222656 281.3125 195.523438 279.652344 195.59375 L 195.277344 196.605469 C 193.613281 196.605469 192.3125 195.308594 192.242188 193.648438 L 192.097656 182.96875 C 192.097656 181.308594 193.398438 180.011719 195.058594 179.9375 L 279.433594 178.929688 C 281.09375 178.929688 282.394531 180.226562 282.46875 181.886719 Z M 282.613281 192.566406 "/>
<path style=" stroke:none;fill-rule:nonzero;fill:rgb(100%,100%,100%);fill-opacity:1;" d="M 237.824219 222.21875 L 247.648438 216.300781 L 245.265625 222.433594 Z M 237.824219 222.21875 "/>
<path style=" stroke:none;fill-rule:nonzero;fill:rgb(100%,100%,100%);fill-opacity:1;" d="M 234.140625 212.910156 C 234.140625 212.910156 234.933594 212.910156 236.164062 214.785156 C 237.390625 216.664062 240.136719 221.714844 240.136719 221.714844 L 245.121094 219.476562 L 246.277344 217.527344 C 246.277344 217.527344 244.109375 213.199219 242.375 212.910156 Z M 234.140625 212.910156 "/>
<path style=" stroke:none;fill-rule:nonzero;fill:rgb(100%,100%,100%);fill-opacity:1;" d="M 231.394531 214.210938 C 231.394531 214.210938 232.914062 212.550781 234.140625 213.417969 C 235.367188 214.28125 237.535156 217.890625 237.535156 217.890625 L 233.996094 224.09375 L 227.636719 220.558594 Z M 231.394531 214.210938 "/>
<path style=" stroke:none;fill-rule:nonzero;fill:rgb(100%,100%,100%);fill-opacity:1;" d="M 242.304688 229.9375 L 242.808594 241.335938 L 238.546875 236.359375 Z M 242.304688 229.9375 "/>
<path style=" stroke:none;fill-rule:nonzero;fill:rgb(100%,100%,100%);fill-opacity:1;" d="M 252.273438 231.09375 C 252.273438 231.09375 251.910156 231.8125 249.671875 232.03125 C 247.433594 232.246094 241.652344 232.246094 241.652344 232.246094 L 241.21875 237.730469 L 242.375 239.679688 C 242.375 239.679688 247.214844 239.894531 248.296875 238.453125 Z M 252.273438 231.09375 "/>
<path style=" stroke:none;fill-rule:nonzero;fill:rgb(100%,100%,100%);fill-opacity:1;" d="M 252.34375 228.0625 C 252.34375 228.0625 253.140625 230.15625 251.765625 230.875 C 250.464844 231.527344 246.203125 231.667969 246.203125 231.667969 L 242.375 225.609375 L 248.515625 221.640625 Z M 252.34375 228.0625 "/>
<path style=" stroke:none;fill-rule:nonzero;fill:rgb(100%,100%,100%);fill-opacity:1;" d="M 233.707031 229.792969 L 223.59375 224.457031 L 230.023438 223.300781 Z M 233.707031 229.792969 "/>
<path style=" stroke:none;fill-rule:nonzero;fill:rgb(100%,100%,100%);fill-opacity:1;" d="M 227.636719 237.804688 C 227.636719 237.804688 227.207031 237.152344 228.144531 235.132812 C 229.082031 233.113281 231.972656 228.136719 231.972656 228.136719 L 227.496094 225.03125 L 225.253906 225.105469 C 225.253906 225.105469 222.65625 229.21875 223.304688 230.804688 Z M 227.636719 237.804688 "/>
<path style=" stroke:none;fill-rule:nonzero;fill:rgb(100%,100%,100%);fill-opacity:1;" d="M 230.238281 239.390625 C 230.238281 239.390625 228 238.957031 228.144531 237.515625 C 228.214844 236 230.238281 232.320312 230.238281 232.320312 L 237.390625 232.101562 L 237.679688 239.390625 Z M 230.238281 239.390625 "/>
</g>
</svg>
